<svg width="16" height="16" viewBox="0 0 16 16" fill="none" xmlns="http://www.w3.org/2000/svg">
<path d="M0.31829 0.318239C0.742542 -0.106014 1.43039 -0.106014 1.85464 0.318239L15.6818 14.1455C16.1061 14.5697 16.1061 15.2576 15.6818 15.6818C15.2576 16.1061 14.5697 16.1061 14.1455 15.6818L0.31829 1.8546C-0.105962 1.43034 -0.105962 0.742493 0.31829 0.318239Z" fill="#707684"/>
<path d="M0.318189 15.6818C-0.106063 15.2575 -0.106063 14.5697 0.318189 14.1454L14.1454 0.31819C14.5696 -0.106063 15.2575 -0.106063 15.6817 0.31819C16.106 0.742443 16.106 1.43029 15.6817 1.85455L1.85454 15.6818C1.43029 16.106 0.742441 16.106 0.318189 15.6818Z" fill="#707684"/>
</svg>
